External Loads File
version=1
nRows=84
nColumns=13
Range=5.000000e-03-10 seconds
endheader
time 	forceRightX 	forceRightY 	forceRightZ 	pointRightX 	pointRightY 	pointRightZ 	forceLeftX 	forceLeftY 	forceLeftZ 	pointLeftX 	pointLeftY 	pointLeftZ 		
2.505000 468.280925 1197.277303 -0.000000 0.384410 0.209483 -0.147312 -100.686897 -94.596583 -0.000000 0.171095 0.433149 -0.379138
2.510000 433.305880 1221.513288 -0.000000 0.381124 0.205281 -0.147374 -101.136978 -97.066517 -0.000000 0.175129 0.437685 -0.379236
2.515000 480.134316 1212.909378 -0.000000 0.377723 0.200740 -0.147345 -107.602378 -92.244604 -0.000000 0.179394 0.442290 -0.379226
2.520000 441.644340 1234.325317 -0.000000 0.374186 0.196692 -0.147439 -107.059379 -94.388130 -0.000000 0.183675 0.446656 -0.379205
2.525000 489.128262 1221.327503 -0.000000 0.370531 0.192514 -0.147517 -112.544920 -88.447473 -0.000000 0.188061 0.451023 -0.379219
2.530000 448.497763 1239.883578 -0.000000 0.366724 0.188746 -0.147660 -111.120669 -89.976395 -0.000000 0.192641 0.455267 -0.379244
2.535000 495.851768 1222.741080 -0.000000 0.362817 0.185336 -0.147692 -115.552950 -83.023134 -0.000000 0.196539 0.459205 -0.378523
2.540000 454.760462 1237.319142 -0.000000 0.358680 0.181483 -0.148003 -113.479755 -83.931741 -0.000000 0.201286 0.463153 -0.378558
2.545000 489.531874 1219.924101 -0.000000 0.354599 0.178224 -0.148118 -116.176801 -77.603700 -0.000000 0.206146 0.466988 -0.378627
2.550000 447.183966 1228.676234 -0.000000 0.350506 0.175025 -0.148294 -113.691924 -78.496296 -0.000000 0.211133 0.470633 -0.378681
2.555000 498.151090 1196.967311 -0.000000 0.346272 0.171884 -0.148413 -116.934556 -70.657239 -0.000000 0.216144 0.474126 -0.378738
2.560000 456.773844 1196.146045 -0.000000 0.341911 0.168940 -0.148462 -114.568520 -71.787272 -0.000000 0.223141 0.477443 -0.379782
2.565000 492.301874 1158.049430 -0.000000 0.337519 0.166309 -0.148451 -116.805393 -65.563663 -0.000000 0.227831 0.480608 -0.379370
2.570000 447.657774 1145.318958 -0.000000 0.333035 0.163686 -0.148406 -114.505585 -67.467895 -0.000000 0.232555 0.483572 -0.378844
2.575000 486.280725 1090.529329 -0.000000 0.328402 0.161269 -0.148254 -117.157401 -60.982193 -0.000000 0.237792 0.486821 -0.378834
2.580000 442.901497 1062.546785 -0.000000 0.323624 0.159200 -0.148105 -115.274395 -63.127595 -0.000000 0.243245 0.489598 -0.378901
2.585000 471.050802 995.173951 -0.000000 0.318871 0.157297 -0.147920 -117.690160 -57.090958 -0.000000 0.248623 0.492085 -0.378992
2.590000 426.472189 952.719329 -0.000000 0.314071 0.155652 -0.147756 -115.844474 -58.874464 -0.000000 0.254069 0.494247 -0.379061
2.595000 441.164468 875.016232 -0.000000 0.309253 0.154304 -0.147556 -117.398057 -52.278548 -0.000000 0.259473 0.496252 -0.379062
2.600000 395.124869 819.871493 -0.000000 0.304415 0.153256 -0.147362 -114.843306 -52.235747 -0.000000 0.265024 0.497998 -0.379141
2.605000 413.892141 725.933852 -0.000000 0.299477 0.152294 -0.147176 -115.597635 -40.903439 -0.000000 0.270745 0.499607 -0.378897
2.610000 365.475315 664.546903 -0.000000 0.294595 0.151609 -0.146935 -111.500383 -37.694821 -0.000000 0.276244 0.500933 -0.378956
2.615000 366.830848 573.341880 -0.000000 0.289607 0.151051 -0.146720 -108.842083 -23.502225 -0.000000 0.281788 0.501573 -0.379033
2.620000 318.274523 513.775295 -0.000000 0.284600 0.150810 -0.146482 -102.485782 -15.948290 -0.000000 0.287310 0.502453 -0.379143
2.625000 310.702164 430.964308 -0.000000 0.279504 0.150760 -0.146268 -95.304524 2.507369 -0.000000 0.292695 0.503003 -0.379294
2.630000 266.994338 378.016772 -0.000000 0.274193 0.151037 -0.146126 -86.026553 15.689898 -0.000000 0.298071 0.503290 -0.379418
2.635000 256.233913 307.146694 -0.000000 0.268666 0.151509 -0.145940 -72.708049 38.702898 -0.000000 0.303297 0.503317 -0.379728
2.640000 220.734225 263.366500 -0.000000 0.263050 0.152190 -0.145756 -59.909114 57.981727 -0.000000 0.308420 0.503011 -0.380396
2.645000 201.200638 214.561616 -0.000000 0.257138 0.153185 -0.145684 -42.701665 82.669169 -0.000000 0.313422 0.502485 -0.380702
2.650000 175.940058 179.820150 -0.000000 0.250950 0.154574 -0.145630 -27.855827 107.903319 -0.000000 0.318548 0.501582 -0.381010
2.655000 162.039922 142.422387 -0.000000 0.244707 0.156119 -0.145600 -7.816219 136.454753 -0.000000 0.323479 0.500227 -0.381433
2.660000 145.983045 115.671477 -0.000000 0.238273 0.158140 -0.145663 6.938651 166.468767 -0.000000 0.328318 0.498684 -0.381826
2.665000 141.793985 79.882008 -0.000000 0.231727 0.160457 -0.145799 37.522455 196.018787 -0.000000 0.332934 0.496881 -0.382144
2.670000 131.906475 59.862287 -0.000000 0.225102 0.163069 -0.146017 51.589154 228.675401 -0.000000 0.337754 0.494724 -0.382760
2.675000 128.775806 30.022564 -0.000000 0.218358 0.165988 -0.146205 88.055701 255.643961 -0.000000 0.342127 0.492421 -0.383192
2.680000 123.479272 15.104523 -0.000000 0.211573 0.169121 -0.146402 100.064321 290.195239 -0.000000 0.346776 0.489729 -0.383529
2.685000 120.394143 -7.335140 -0.000000 0.204819 0.172606 -0.146618 134.480701 316.394899 -0.000000 0.350912 0.486692 -0.383968
2.690000 118.532925 -17.577072 -0.000000 0.198231 0.176301 -0.146795 142.073679 353.025309 -0.000000 0.354926 0.483299 -0.384381
2.695000 115.760766 -34.591451 -0.000000 0.191886 0.180241 -0.146856 176.046923 377.951976 -0.000000 0.359008 0.479544 -0.384822
2.700000 115.822737 -39.648492 -0.000000 0.185874 0.184397 -0.146793 178.457738 416.071614 -0.000000 0.362979 0.475600 -0.385154
2.705000 113.196219 -49.867969 -0.000000 0.180235 0.188782 -0.146922 207.665407 441.189209 -0.000000 0.366789 0.471449 -0.385592
2.710000 113.725989 -49.442108 -0.000000 0.174984 0.193086 -0.147282 204.063553 479.717927 -0.000000 0.371318 0.467047 -0.385904
2.715000 109.044634 -57.077753 -0.000000 0.170186 0.197592 -0.147645 243.361684 497.146124 -0.000000 0.375362 0.462233 -0.386089
2.720000 108.904753 -52.574299 -0.000000 0.165726 0.202137 -0.147634 234.018208 534.974892 -0.000000 0.379327 0.457515 -0.386198
2.725000 104.677634 -53.982325 -0.000000 0.161498 0.206807 -0.147771 255.463736 556.435462 -0.000000 0.383270 0.452555 -0.386190
2.730000 102.837640 -48.915471 -0.000000 0.157437 0.211706 -0.147692 239.249339 591.873851 -0.000000 0.387140 0.447394 -0.386199
2.735000 95.292099 -53.878494 -0.000000 0.153703 0.216796 -0.147774 274.054799 602.866665 -0.000000 0.390954 0.442051 -0.386143
2.740000 91.198091 -51.628829 -0.000000 0.150230 0.222142 -0.147790 252.229486 635.669776 -0.000000 0.394764 0.436284 -0.386043
2.745000 82.187394 -57.357924 -0.000000 0.147170 0.227588 -0.148003 271.010514 649.291865 -0.000000 0.398448 0.430910 -0.386022
2.750000 75.764381 -59.404508 -0.000000 0.144238 0.233251 -0.148042 243.901710 679.161117 -0.000000 0.402072 0.424637 -0.386026
2.755000 62.911403 -69.323348 -0.000000 0.141557 0.239053 -0.148015 273.481834 685.790631 -0.000000 0.405652 0.418863 -0.385930
2.760000 55.030380 -74.768738 -0.000000 0.139047 0.245001 -0.147942 242.277385 713.846213 -0.000000 0.409027 0.412266 -0.385868
2.765000 39.715343 -85.484675 -0.000000 0.136930 0.251159 -0.148132 273.316702 718.135046 -0.000000 0.412293 0.405786 -0.385848
2.770000 31.473922 -92.547642 -0.000000 0.134849 0.257386 -0.148281 240.474429 744.242655 -0.000000 0.415289 0.399216 -0.385885
2.775000 17.428961 -101.274883 -0.000000 0.133394 0.263701 -0.148227 255.065154 753.256208 -0.000000 0.418023 0.392621 -0.385902
2.780000 10.480948 -108.009696 -0.000000 0.131947 0.270130 -0.148380 220.496159 777.371862 -0.000000 0.420473 0.385822 -0.385817
2.785000 -5.029430 -114.138611 -0.000000 0.130755 0.276610 -0.148462 253.145761 780.608965 -0.000000 0.422738 0.378931 -0.385821
2.790000 -9.787818 -118.939557 -0.000000 0.129849 0.283183 -0.148236 219.706825 803.652455 -0.000000 0.424742 0.372001 -0.385726
2.795000 -23.854794 -121.039670 -0.000000 0.129150 0.289808 -0.148313 258.861444 804.997586 -0.000000 0.426436 0.364958 -0.385599
2.800000 -25.562826 -123.481181 -0.000000 0.128691 0.296451 -0.148432 226.231826 827.620043 -0.000000 0.427907 0.357918 -0.385348
2.805000 -36.509454 -122.136755 -0.000000 0.128456 0.303214 -0.148559 266.956680 828.404925 -0.000000 0.429239 0.350715 -0.384832
2.810000 -35.129953 -122.636980 -0.000000 0.128483 0.310033 -0.148611 235.091365 850.939548 -0.000000 0.430141 0.343475 -0.384920
2.815000 -40.222818 -119.967521 -0.000000 0.128947 0.316925 -0.148706 258.245042 857.451857 -0.000000 0.430822 0.336156 -0.384982
2.820000 -36.592338 -119.059989 -0.000000 0.129437 0.323787 -0.148707 227.743607 879.533383 -0.000000 0.431120 0.328855 -0.385165
2.825000 -42.332236 -114.258243 -0.000000 0.130235 0.330909 -0.148724 274.573152 880.323554 -0.000000 0.431035 0.321538 -0.384696
2.830000 -36.923502 -112.716607 -0.000000 0.131332 0.337834 -0.148741 241.767199 904.876967 -0.000000 0.430721 0.314138 -0.384554
2.835000 -40.351700 -107.753055 -0.000000 0.132664 0.344685 -0.148686 284.156676 908.910202 -0.000000 0.430068 0.306784 -0.384634
2.840000 -34.525765 -105.953236 -0.000000 0.134229 0.351493 -0.148745 250.609725 936.529064 -0.000000 0.429321 0.299294 -0.384525
2.845000 -37.152967 -101.382455 -0.000000 0.135288 0.358512 -0.149389 291.499704 944.430329 -0.000000 0.428294 0.291882 -0.384338
2.850000 -31.706829 -99.987324 -0.000000 0.137407 0.365536 -0.149428 254.449131 976.577457 -0.000000 0.427049 0.284487 -0.384030
2.855000 -35.167081 -96.151009 -0.000000 0.139801 0.372485 -0.149429 299.512831 987.558743 -0.000000 0.425459 0.277214 -0.383867
2.860000 -30.884880 -95.745571 -0.000000 0.142387 0.379417 -0.149472 258.167490 1024.882658 -0.000000 0.423571 0.270002 -0.383794
2.865000 -35.823133 -93.062118 -0.000000 0.145150 0.386357 -0.149715 306.609320 1039.700563 -0.000000 0.421500 0.262837 -0.383652
2.870000 -33.442081 -94.089564 -0.000000 0.148341 0.393340 -0.149761 262.707067 1081.593214 -0.000000 0.419128 0.255701 -0.383469
2.875000 -40.785874 -92.501390 -0.000000 0.151673 0.400064 -0.149883 318.457602 1098.571473 -0.000000 0.416487 0.248696 -0.383289
2.880000 -40.471492 -95.176575 -0.000000 0.155497 0.406848 -0.149938 270.699685 1144.236710 -0.000000 0.413550 0.241840 -0.383096
2.885000 -48.715183 -94.954524 -0.000000 0.159223 0.413522 -0.149945 313.556130 1167.232388 -0.000000 0.410433 0.235151 -0.382865
2.890000 -50.223073 -98.712565 -0.000000 0.163235 0.420196 -0.150121 263.857518 1213.207475 -0.000000 0.406999 0.228551 -0.382617
2.895000 -60.589060 -97.996636 -0.000000 0.167640 0.426564 -0.150143 317.083451 1233.814010 -0.000000 0.403354 0.222101 -0.382394
2.900000 -62.767710 -101.987320 -0.000000 0.172245 0.432997 -0.150241 265.623166 1277.329747 -0.000000 0.399465 0.215885 -0.382050
2.905000 -73.575887 -99.830918 -0.000000 0.177026 0.439164 -0.150452 325.375323 1292.366095 -0.000000 0.395277 0.209963 -0.381839
2.910000 -75.269235 -103.094746 -0.000000 0.182006 0.445308 -0.150544 274.366616 1328.820578 -0.000000 0.390819 0.204186 -0.381743
2.915000 -85.292296 -98.578618 -0.000000 0.187142 0.451109 -0.150806 341.677926 1332.800041 -0.000000 0.386134 0.198617 -0.381638
2.920000 -85.507065 -100.451771 -0.000000 0.192659 0.456698 -0.151004 290.061974 1357.938096 -0.000000 0.381213 0.193405 -0.381416
